<mxfile host="app.diagrams.net" agent="Mozilla/5.0 (Windows NT 10.0; Win64; x64) AppleWebKit/537.36 (KHTML, like Gecko) Chrome/130.0.0.0 Safari/537.36" version="24.8.3">
  <diagram name="Page-1" id="wVYBC4rcMu2nw_acVL41">
    <mxGraphModel dx="598" dy="491" grid="1" gridSize="10" guides="1" tooltips="1" connect="1" arrows="1" fold="1" page="1" pageScale="1" pageWidth="850" pageHeight="1100" math="0" shadow="0">
      <root>
        <mxCell id="0" />
        <mxCell id="1" parent="0" />
        <mxCell id="YmnD2H-DsPDv7kOZWSRZ-1" value="&lt;div&gt;&lt;u&gt;0.0&lt;/u&gt;&lt;/div&gt;Mister ED&lt;div&gt;System&lt;/div&gt;" style="ellipse;whiteSpace=wrap;html=1;aspect=fixed;" parent="1" vertex="1">
          <mxGeometry x="340" y="210" width="120" height="120" as="geometry" />
        </mxCell>
        <mxCell id="YmnD2H-DsPDv7kOZWSRZ-2" value="Patient" style="whiteSpace=wrap;html=1;aspect=fixed;" parent="1" vertex="1">
          <mxGeometry x="70" y="230" width="80" height="80" as="geometry" />
        </mxCell>
        <mxCell id="YmnD2H-DsPDv7kOZWSRZ-3" value="Hotline&amp;nbsp;&lt;div&gt;Nurse&lt;/div&gt;" style="whiteSpace=wrap;html=1;aspect=fixed;" parent="1" vertex="1">
          <mxGeometry x="670" y="230" width="80" height="80" as="geometry" />
        </mxCell>
        <mxCell id="YmnD2H-DsPDv7kOZWSRZ-5" value="General Practitioner" style="whiteSpace=wrap;html=1;aspect=fixed;" parent="1" vertex="1">
          <mxGeometry x="360" y="410" width="80" height="80" as="geometry" />
        </mxCell>
        <mxCell id="YmnD2H-DsPDv7kOZWSRZ-6" value="Emergency Department Manager" style="whiteSpace=wrap;html=1;aspect=fixed;" parent="1" vertex="1">
          <mxGeometry x="360" y="50" width="80" height="80" as="geometry" />
        </mxCell>
        <mxCell id="YmnD2H-DsPDv7kOZWSRZ-9" value="" style="html=1;verticalAlign=bottom;endArrow=block;curved=0;rounded=0;" parent="1" source="YmnD2H-DsPDv7kOZWSRZ-2" target="YmnD2H-DsPDv7kOZWSRZ-1" edge="1">
          <mxGeometry width="80" relative="1" as="geometry">
            <mxPoint x="210" y="240" as="sourcePoint" />
            <mxPoint x="290" y="240" as="targetPoint" />
            <Array as="points">
              <mxPoint x="240" y="230" />
            </Array>
          </mxGeometry>
        </mxCell>
        <mxCell id="kG92BeQsD24bsFQ-e9bw-1" value="Severity" style="edgeLabel;html=1;align=center;verticalAlign=middle;resizable=0;points=[];" vertex="1" connectable="0" parent="YmnD2H-DsPDv7kOZWSRZ-9">
          <mxGeometry x="0.1955" y="2" relative="1" as="geometry">
            <mxPoint x="-25" y="-1" as="offset" />
          </mxGeometry>
        </mxCell>
        <mxCell id="YmnD2H-DsPDv7kOZWSRZ-10" value="" style="html=1;verticalAlign=bottom;endArrow=block;curved=0;rounded=0;" parent="1" source="YmnD2H-DsPDv7kOZWSRZ-1" target="YmnD2H-DsPDv7kOZWSRZ-2" edge="1">
          <mxGeometry width="80" relative="1" as="geometry">
            <mxPoint x="200" y="330" as="sourcePoint" />
            <mxPoint x="280" y="330" as="targetPoint" />
            <Array as="points">
              <mxPoint x="240" y="300" />
            </Array>
          </mxGeometry>
        </mxCell>
        <mxCell id="kG92BeQsD24bsFQ-e9bw-2" value="Waitimes" style="edgeLabel;html=1;align=center;verticalAlign=middle;resizable=0;points=[];" vertex="1" connectable="0" parent="YmnD2H-DsPDv7kOZWSRZ-10">
          <mxGeometry x="-0.0826" y="1" relative="1" as="geometry">
            <mxPoint x="-10" y="-1" as="offset" />
          </mxGeometry>
        </mxCell>
        <mxCell id="YmnD2H-DsPDv7kOZWSRZ-11" value="Hospital Locations" style="html=1;verticalAlign=bottom;endArrow=block;curved=0;rounded=0;" parent="1" source="YmnD2H-DsPDv7kOZWSRZ-1" target="YmnD2H-DsPDv7kOZWSRZ-2" edge="1">
          <mxGeometry width="80" relative="1" as="geometry">
            <mxPoint x="200" y="380" as="sourcePoint" />
            <mxPoint x="280" y="380" as="targetPoint" />
          </mxGeometry>
        </mxCell>
        <mxCell id="YmnD2H-DsPDv7kOZWSRZ-13" value="Patient Call" style="html=1;verticalAlign=bottom;endArrow=block;curved=0;rounded=0;" parent="1" source="YmnD2H-DsPDv7kOZWSRZ-1" target="YmnD2H-DsPDv7kOZWSRZ-3" edge="1">
          <mxGeometry width="80" relative="1" as="geometry">
            <mxPoint x="510" y="220" as="sourcePoint" />
            <mxPoint x="590" y="220" as="targetPoint" />
            <Array as="points">
              <mxPoint x="560" y="240" />
            </Array>
          </mxGeometry>
        </mxCell>
        <mxCell id="YmnD2H-DsPDv7kOZWSRZ-14" value="" style="html=1;verticalAlign=bottom;endArrow=block;curved=0;rounded=0;" parent="1" source="YmnD2H-DsPDv7kOZWSRZ-3" target="YmnD2H-DsPDv7kOZWSRZ-1" edge="1">
          <mxGeometry x="-0.1534" y="-7" width="80" relative="1" as="geometry">
            <mxPoint x="470" y="330" as="sourcePoint" />
            <mxPoint x="550" y="330" as="targetPoint" />
            <Array as="points">
              <mxPoint x="560" y="290" />
            </Array>
            <mxPoint as="offset" />
          </mxGeometry>
        </mxCell>
        <mxCell id="kG92BeQsD24bsFQ-e9bw-3" value="Advice for&lt;div&gt;Patients&lt;/div&gt;" style="edgeLabel;html=1;align=center;verticalAlign=middle;resizable=0;points=[];" vertex="1" connectable="0" parent="YmnD2H-DsPDv7kOZWSRZ-14">
          <mxGeometry x="-0.1665" y="2" relative="1" as="geometry">
            <mxPoint x="-23" as="offset" />
          </mxGeometry>
        </mxCell>
        <mxCell id="YmnD2H-DsPDv7kOZWSRZ-17" value="Patient&lt;div&gt;Appointment&lt;/div&gt;" style="html=1;verticalAlign=bottom;endArrow=block;curved=0;rounded=0;" parent="1" source="YmnD2H-DsPDv7kOZWSRZ-1" target="YmnD2H-DsPDv7kOZWSRZ-5" edge="1">
          <mxGeometry x="0.2343" y="-4" width="80" relative="1" as="geometry">
            <mxPoint x="240" y="330" as="sourcePoint" />
            <mxPoint x="320" y="330" as="targetPoint" />
            <Array as="points">
              <mxPoint x="360" y="370" />
            </Array>
            <mxPoint as="offset" />
          </mxGeometry>
        </mxCell>
        <mxCell id="YmnD2H-DsPDv7kOZWSRZ-18" value="ER waitlist&lt;div&gt;Edits&lt;/div&gt;" style="html=1;verticalAlign=bottom;endArrow=block;curved=0;rounded=0;" parent="1" source="YmnD2H-DsPDv7kOZWSRZ-6" target="YmnD2H-DsPDv7kOZWSRZ-1" edge="1">
          <mxGeometry width="80" relative="1" as="geometry">
            <mxPoint x="390" y="170" as="sourcePoint" />
            <mxPoint x="470" y="170" as="targetPoint" />
            <Array as="points">
              <mxPoint x="370" y="170" />
            </Array>
          </mxGeometry>
        </mxCell>
        <mxCell id="YmnD2H-DsPDv7kOZWSRZ-19" value="ER Statistics" style="html=1;verticalAlign=bottom;endArrow=block;curved=0;rounded=0;" parent="1" source="YmnD2H-DsPDv7kOZWSRZ-1" target="YmnD2H-DsPDv7kOZWSRZ-6" edge="1">
          <mxGeometry width="80" relative="1" as="geometry">
            <mxPoint x="450" y="170" as="sourcePoint" />
            <mxPoint x="530" y="170" as="targetPoint" />
            <Array as="points">
              <mxPoint x="430" y="170" />
            </Array>
          </mxGeometry>
        </mxCell>
        <mxCell id="6AsKHR8IywjmqEPWiZ_l-1" value="Reccomended&lt;div&gt;Steps&lt;/div&gt;" style="html=1;verticalAlign=bottom;endArrow=block;curved=0;rounded=0;" parent="1" source="YmnD2H-DsPDv7kOZWSRZ-1" target="YmnD2H-DsPDv7kOZWSRZ-2" edge="1">
          <mxGeometry x="0.0573" y="10" width="80" relative="1" as="geometry">
            <mxPoint x="190" y="390" as="sourcePoint" />
            <mxPoint x="270" y="390" as="targetPoint" />
            <Array as="points">
              <mxPoint x="240" y="340" />
            </Array>
            <mxPoint x="5" y="1" as="offset" />
          </mxGeometry>
        </mxCell>
        <mxCell id="6AsKHR8IywjmqEPWiZ_l-2" value="Medical&lt;div&gt;Attention&lt;/div&gt;" style="html=1;verticalAlign=bottom;endArrow=block;curved=0;rounded=0;" parent="1" source="YmnD2H-DsPDv7kOZWSRZ-1" target="YmnD2H-DsPDv7kOZWSRZ-2" edge="1">
          <mxGeometry x="0.0645" y="10" width="80" relative="1" as="geometry">
            <mxPoint x="190" y="380" as="sourcePoint" />
            <mxPoint x="270" y="380" as="targetPoint" />
            <Array as="points">
              <mxPoint x="240" y="380" />
            </Array>
            <mxPoint x="6" y="2" as="offset" />
          </mxGeometry>
        </mxCell>
        <mxCell id="6AsKHR8IywjmqEPWiZ_l-3" value="Aprove/Override&lt;div&gt;Appointments&lt;/div&gt;" style="html=1;verticalAlign=bottom;endArrow=block;curved=0;rounded=0;" parent="1" source="YmnD2H-DsPDv7kOZWSRZ-5" target="YmnD2H-DsPDv7kOZWSRZ-1" edge="1">
          <mxGeometry width="80" relative="1" as="geometry">
            <mxPoint x="460" y="410" as="sourcePoint" />
            <mxPoint x="540" y="410" as="targetPoint" />
            <Array as="points">
              <mxPoint x="490" y="380" />
            </Array>
          </mxGeometry>
        </mxCell>
        <mxCell id="J_QBnB00ZqlzljHU9biv-1" value="Accept Pateint Calls" style="html=1;verticalAlign=bottom;endArrow=block;curved=0;rounded=0;" parent="1" source="YmnD2H-DsPDv7kOZWSRZ-3" target="YmnD2H-DsPDv7kOZWSRZ-1" edge="1">
          <mxGeometry width="80" relative="1" as="geometry">
            <mxPoint x="530" y="170" as="sourcePoint" />
            <mxPoint x="610" y="170" as="targetPoint" />
            <Array as="points">
              <mxPoint x="560" y="210" />
            </Array>
          </mxGeometry>
        </mxCell>
        <mxCell id="kG92BeQsD24bsFQ-e9bw-4" value="" style="html=1;verticalAlign=bottom;endArrow=block;curved=0;rounded=0;exitX=1;exitY=0.196;exitDx=0;exitDy=0;exitPerimeter=0;entryX=0.057;entryY=0.264;entryDx=0;entryDy=0;entryPerimeter=0;" edge="1" parent="1" source="YmnD2H-DsPDv7kOZWSRZ-2" target="YmnD2H-DsPDv7kOZWSRZ-1">
          <mxGeometry width="80" relative="1" as="geometry">
            <mxPoint x="148" y="238" as="sourcePoint" />
            <mxPoint x="340" y="235" as="targetPoint" />
            <Array as="points">
              <mxPoint x="238" y="210" />
            </Array>
          </mxGeometry>
        </mxCell>
        <mxCell id="kG92BeQsD24bsFQ-e9bw-5" value="Patient Info" style="edgeLabel;html=1;align=center;verticalAlign=middle;resizable=0;points=[];" vertex="1" connectable="0" parent="kG92BeQsD24bsFQ-e9bw-4">
          <mxGeometry x="0.1955" y="2" relative="1" as="geometry">
            <mxPoint x="-25" y="-1" as="offset" />
          </mxGeometry>
        </mxCell>
      </root>
    </mxGraphModel>
  </diagram>
</mxfile>
